<svg xmlns:rdf="http://www.w3.org/1999/02/22-rdf-syntax-ns#" xmlns="http://www.w3.org/2000/svg" height="100%" width="100%" version="1.1" xmlns:cc="http://creativecommons.org/ns#" xmlns:dc="http://purl.org/dc/elements/1.1/" viewBox="0 0 475.28234 474.93381">
 <metadata>
  <rdf:RDF>
   <cc:Work rdf:about="">
    <dc:format>image/svg+xml</dc:format>
    <dc:type rdf:resource="http://purl.org/dc/dcmitype/StillImage"/>
    <dc:title/>
   </cc:Work>
  </rdf:RDF>
 </metadata>
 <g fill="#00F" transform="translate(-59.719393,-26.998476)" stroke="#00F">
  <g stroke-linejoin="round" transform="matrix(0.91416319,0,0,0.91416544,27.395066,-473.093)" stroke="#00F" stroke-linecap="round" stroke-miterlimit="4" stroke-dasharray="none" stroke-width="10.93895245000000000" fill="#00F">
   <path opacity="0.90000000000000002" stroke-linejoin="round" d="m309.14,661.91,109.39,0s-99.405,98.916-146.54,146.54c8.2188,8.3854,13.659,13.492,21.878,21.878,47.154-47.783,146.54-146.54,146.54-146.54v109.39l21.88-21.88v-131.27h-131.27z" stroke="#00F" stroke-linecap="round" stroke-miterlimit="4" stroke-dasharray="none" stroke-width="10.93895245000000000" fill="#00F"/>
  </g>
 </g>
 <g transform="translate(-59.719393,-26.998476)" display="none">
  <path opacity="0.9" d="m171.78,138.66c-20.712,11.144-34.121,34.912-31.578,58.505-0.98591,58.029-0.51685,116.1-0.058,174.11,4.7586,29.509,33.295,54.561,63.764,51.804,59.166,0.22177,118.38,1.0919,177.51-0.43345,26.75-4.879,50.207-29.364,49.456-57.304,1.46-23.047,1.0489-46.156,0.75092-69.232-6.5156,6.7434-12.558,14.021-19.243,20.557-1.337,17.627,0.94468,35.456-1.2716,52.988-3.7675,18.965-21.722,35.121-41.652,33.185-58.195-0.65068-116.42,0.0887-174.6-0.15435-19.529-2.9822-36.568-21.462-34.355-41.858,0.35577-58.956-0.71442-117.96,0.47649-176.88,3.2287-18.852,21.705-29.809,40.282-30.446,16.255,0,47.157,0.22898,49.479-3.0052,7.0796-4.1873,11.163-10.785,16.335-16.995-55.082,0-71.794-6.9342-95.3,5.158z"/>
 </g>
 <g fill="#00F" transform="translate(-59.719393,-26.998476)" stroke="#00F">
  <path stroke-linejoin="round" d="m145.33,366.31c-0.33583-0.33583-0.61061-63.809-0.61061-141.05v-140.44h117.65l-7.2844,7.3274-7.2844,7.3274h-42.906c-35.964,0-43.118,0.2117-44.215,1.3085-1.1213,1.1213-1.3085,19.269-1.3085,126.86v125.55h125.48c110.93,0,125.48-0.15934,125.48-1.3739,0-0.75564,0.61825-1.3739,1.3739-1.3739,1.202,0,1.3739-5.4726,1.3739-43.758v-43.758l6.8694-6.8236,6.8694-6.8236v117.65h-140.44c-77.243,0-140.72-0.27478-141.05-0.61062z" transform="translate(0,50)" stroke="#00F" stroke-linecap="round" stroke-miterlimit="4" stroke-dasharray="none" stroke-width="10" fill="#00F"/>
 </g>
</svg>
