<svg xmlns:rdf="http://www.w3.org/1999/02/22-rdf-syntax-ns#" xmlns="http://www.w3.org/2000/svg" version="1.1" xmlns:cc="http://creativecommons.org/ns#" xmlns:dc="http://purl.org/dc/elements/1.1/" viewBox="0 0 512 512">
<metadata>
<rdf:RDF>
<cc:Work rdf:about="">
<dc:format>image/svg+xml</dc:format>
<dc:type rdf:resource="http://purl.org/dc/dcmitype/StillImage"/>
<dc:title/>
</cc:Work>
</rdf:RDF>
</metadata>
<path d="m107,512c-24,0-43-19-43-43,0-23,19-42,43-42,23,0,42,19,42,42,0,24-19,43-42,43z"/>
<path d="m107,448c-12,0-22,10-22,21,0,12,10,22,22,22,11,0,21-10,21-22,0-11-10-21-21-21z"/>
<path d="m341,512c-23,0-42-19-42-43,0-23,19-42,42-42,24,0,43,19,43,42,0,24-19,43-43,43z"/>
<path d="m341,448c-11,0-21,10-21,21,0,12,10,22,21,22,12,0,22-10,22-22,0-11-10-21-22-21z"/>
<path d="m341,448-234,0c-6,0-11-5-11-11s5-10,11-10h226l83-355c1-5,6-8,11-8h74c6,0,11,5,11,11s-5,10-11,10h-66l-83,355c-1,5-6,8-11,8z"/>
<path d="m352,405-277,0c-5,0-9-3-10-7l-64-192c-2-3-1-7,1-10,2-2,5-4,9-4h384c6,0,10,5,10,11s-4,10-10,10h-370l57,171h270c6,0,11,5,11,11s-5,10-11,10z"/>
</svg>
