<?xml version="1.0" encoding="utf-8"?>
<!-- Generated by IcoMoon.io -->
<!DOCTYPE svg PUBLIC "-//W3C//DTD SVG 1.1//EN" "http://www.w3.org/Graphics/SVG/1.1/DTD/svg11.dtd">
<svg version="1.1" xmlns="http://www.w3.org/2000/svg" xmlns:xlink="http://www.w3.org/1999/xlink" width="32" height="32" viewBox="0 0 32 32">
<g id="icomoon-ignore">
	<line stroke-width="1" x1="" y1="" x2="" y2="" stroke="#449FDB" opacity=""></line>
</g>
	<path d="M24.688 32h-24.688v-29.313h19.313c0.375 0 0.688 0.25 0.688 0.625s-0.313 0.688-0.688 0.688h-18v26.688h22v-14.688c0-0.375 0.313-0.688 0.688-0.688s0.688 0.313 0.688 0.688zM14.438 18.25c-0.188 0-0.375-0.063-0.5-0.188-0.188-0.188-0.25-0.5-0.125-0.813l1.875-3.75c0.063-0.063 0.125-0.125 0.125-0.188l12.75-12.688c0.375-0.438 0.875-0.625 1.375-0.625 0.813 0 1.563 0.5 1.938 1.313 0.313 0.75 0.125 1.5-0.5 2.125l-12.688 12.75c-0.063 0-0.125 0.063-0.188 0.125l-3.75 1.875c-0.125 0.063-0.25 0.063-0.313 0.063zM16.875 14.188l-0.938 1.875 1.875-0.938 12.625-12.625c0.25-0.25 0.313-0.438 0.188-0.688s-0.375-0.5-0.688-0.5c-0.125 0-0.313 0.063-0.438 0.25zM29.063 5.5c-0.188 0-0.375-0.063-0.5-0.188l-1.875-1.875c-0.25-0.25-0.25-0.688 0-0.938s0.688-0.25 0.938 0l1.875 1.875c0.25 0.25 0.25 0.688 0 0.938-0.125 0.125-0.313 0.188-0.438 0.188z" fill="#000000"></path>
</svg>
