<?xml version="1.0" encoding="utf-8"?>
<!-- Generated by IcoMoon.io -->
<!DOCTYPE svg PUBLIC "-//W3C//DTD SVG 1.1//EN" "http://www.w3.org/Graphics/SVG/1.1/DTD/svg11.dtd">
<svg version="1.1" xmlns="http://www.w3.org/2000/svg" xmlns:xlink="http://www.w3.org/1999/xlink" width="32" height="32" viewBox="0 0 32 32">
<g id="icomoon-ignore">
	<line stroke-width="1" x1="" y1="" x2="" y2="" stroke="#449FDB" opacity=""></line>
</g>
	<path d="M18.625 27.938c0 0.063 0.063 0.063 0.063 0.063 0 1.5-1.25 2.688-2.688 2.688s-2.688-1.188-2.688-2.688c0 0 0.063 0 0.063-0.063-8.5-0.188-10.688-1.563-10.688-3.25 0-0.563 0.188-1.063 0.75-1.5 4.063-4.438 5.25-3.188 5.25-9.875 0-4.375 0.188-8.438 5.5-9.188-0.125-0.25-0.188-0.5-0.188-0.813 0-1.063 0.875-2 2-2s2 0.938 2 2c0 0.313-0.063 0.563-0.188 0.813 5.313 0.75 5.5 4.813 5.5 9.188 0 6.688 1.25 5.438 5.25 9.938 0.563 0.438 0.75 0.938 0.75 1.438 0 1.688-2.188 3.063-10.688 3.25zM16 29.313c0.75 0 1.313-0.563 1.313-1.313 0 0 0 0 0 0-0.438 0-0.875 0-1.313 0s-0.875 0-1.313 0c0 0 0 0 0 0 0 0.75 0.563 1.313 1.313 1.313zM16 2.688c-0.375 0-0.688 0.313-0.688 0.625 0 0.375 0.313 0.688 0.688 0.688s0.688-0.313 0.688-0.688c0-0.313-0.313-0.625-0.688-0.625zM27.75 24.25c0 0-1-1.125-2.688-2.625-2.25-2.063-3.063-3.063-3.063-8.313 0-5.063-0.25-8-6-8s-6 2.938-6 8c0 5.25-0.813 6.25-3.063 8.313-1.625 1.5-2.625 2.625-2.625 2.625-0.313 0.25-0.313 0.375-0.313 0.438s0.125 2 12 2c11.875 0 12-1.938 12-2s0-0.188-0.25-0.438z" fill="#000000"></path>
</svg>
