<?xml version="1.0" encoding="utf-8"?>
<!-- Generated by IcoMoon.io -->
<!DOCTYPE svg PUBLIC "-//W3C//DTD SVG 1.1//EN" "http://www.w3.org/Graphics/SVG/1.1/DTD/svg11.dtd">
<svg version="1.1" xmlns="http://www.w3.org/2000/svg" xmlns:xlink="http://www.w3.org/1999/xlink" width="32" height="32" viewBox="0 0 32 32">
<g id="icomoon-ignore">
	<line stroke-width="1" x1="" y1="" x2="" y2="" stroke="#449FDB" opacity=""></line>
</g>
	<path d="M25.438 5.063c-2.188 3.563-3.188 5.625-5.063 9.5-3.563-1.375-7.875-2-11.938 0.875-1.563 1.313-2 4.313-0.688 5.313 1.875 2.188 4.875 2.313 7.75 1.813-2.75 3.125-5.688 7-9.25 7.813-1.938 0.313-3.25-2.125-2.188-4.438 0.313-0.5 0.563-0.875 0-0.313-1.688 2.688-0.563 6.313 1.875 6.125 3.188-0.063 6-3.375 8.5-6.063 1-1.125 1.875-2.5 2.875-3.5 1.25-0.5 2.313-0.75 3.5-1.563 0.5-0.813 0.25-0.75-0.438-0.563-0.313 0.125-0.938 0.313-2.125 0.5 0.188-0.313 0.688-1 0.938-1.438 0.625-0.75 1-1.625 1.688-2.563 0.563 0.188 2.313 0.938 2.75 1.5-0.125 1.125-0.188 1.75-0.188 2.75-0.125 1.875-0.438 9.375 0.875 10.25 3.375 3.188 4.125-5.938 3.625-7.875-0.125-2.438-1.563-4.75-2.75-6.25 0.438-3.75 1.688-8.188 2.313-11.125 1.5-6.063 2.438-8.375-2.063-0.75zM23.813 16.25c-1.25-0.813-0.5-0.438-2.188-1.188-0.188-0.125 0.125-0.313 0.125-0.625 1.125-2.438 2.563-6.063 4.375-8-0.813 4.375-1.75 6.563-2.313 9.813zM19.625 16.125c-1.063 1.563-1.813 3.563-3.188 4.688-2.438 0.563-5.375 0.938-6.688-1.375-0.688-1.5 0.688-3.75 2.188-4.125 2.688-0.625 5.5 0.125 7.688 0.813zM24.688 18.938c2.938 2.375 1.25 10.625 0.438 10.625-1.188-0.5-0.75-7.938-0.563-9.5 0-0.75 0-1.125 0.125-1.125z" fill="#000000"></path>
</svg>
