<svg xmlns:rdf="http://www.w3.org/1999/02/22-rdf-syntax-ns#" xmlns="http://www.w3.org/2000/svg" height="364" width="304" version="1.1" xmlns:cc="http://creativecommons.org/ns#" xmlns:dc="http://purl.org/dc/elements/1.1/" viewBox="0 0 186.98743 223.89284">
 <metadata>
  <rdf:RDF>
   <cc:Work rdf:about="">
    <dc:format>image/svg+xml</dc:format>
    <dc:type rdf:resource="http://purl.org/dc/dcmitype/StillImage"/>
    <dc:title/>
   </cc:Work>
  </rdf:RDF>
 </metadata>
 <path fill="#000" d="m28.125,185.6v-19.647h-13.955v-24.605h13.955v-19.464h-13.955v-24.972h13.955v-90.342c33.175,0.075216,66.369-0.17225,99.523,1.1015,19.834,2.2565,36.759,17.494,42.05,36.593,8.1072,24.271,0.68162,55.114-22.376,68.462-13.866,8.3074-30.326,9.08-46.047,8.8247-19.608,0.23724-39.218,0.30692-58.827,0.44859v19.348h88.138v24.605h-88.138v51.414h-14.322v-31.766zm91.255-89.057c22.549-1.6922,37.452-13.466,35.932-34.742-0.0126-15.796-7.6067-23.184-22.449-30.095-9.8446-2.8399-20.382-1.2961-30.528-1.9761-19.962-0.3398-39.927-0.40396-59.891-0.3959v67.573c25.645-0.0777,51.298,0.20539,76.937-0.36348z"/>
</svg>
