<?xml version="1.0" encoding="utf-8"?>
<!-- Generated by IcoMoon.io -->
<!DOCTYPE svg PUBLIC "-//W3C//DTD SVG 1.1//EN" "http://www.w3.org/Graphics/SVG/1.1/DTD/svg11.dtd">
<svg version="1.1" xmlns="http://www.w3.org/2000/svg" xmlns:xlink="http://www.w3.org/1999/xlink" width="32" height="32" viewBox="0 0 32 32">
<g id="icomoon-ignore">
	<line stroke-width="1" x1="" y1="" x2="" y2="" stroke="#449FDB" opacity=""></line>
</g>
	<path d="M9.313 23.563v-2h-1.438v-2.563h1.438v-2h-1.438v-2.563h1.438v-9.25c3.375 0 6.813-0.063 10.188 0.125 2.063 0.188 3.813 1.75 4.313 3.75 0.875 2.5 0.063 5.625-2.25 7-1.438 0.875-3.125 0.938-4.75 0.938-2 0-4.063 0-6.063 0.063v1.938h9.063v2.563h-9.063v5.25h-1.438zM18.688 14.438c2.313-0.188 3.813-1.375 3.688-3.563 0-1.625-0.813-2.438-2.313-3.125-1-0.313-2.125-0.125-3.125-0.188-2.063-0.063-4.125-0.063-6.188-0.063v6.938c2.625 0 5.25 0.063 7.938 0z" fill="#000000"></path>
</svg>
