<!-- Generated by IcoMoon.io -->
<svg xmlns:rdf="http://www.w3.org/1999/02/22-rdf-syntax-ns#" xmlns="http://www.w3.org/2000/svg" version="1.1" xmlns:cc="http://creativecommons.org/ns#" xmlns:dc="http://purl.org/dc/elements/1.1/" viewBox="0 0 32 32">
<metadata>
<rdf:RDF>
<cc:Work rdf:about="">
<dc:format>image/svg+xml</dc:format>
<dc:type rdf:resource="http://purl.org/dc/dcmitype/StillImage"/>
<dc:title/>
</cc:Work>
</rdf:RDF>
</metadata>
<g fill="#FFF">
<line y2="" opacity="" stroke-width="1" x2="" stroke="#449FDB" y1="" x1="" fill="#FFF"/>
</g>
<path d="M1.688,1.188c-0.311,0-0.562,0.252-0.563,0.563v25.06c0,0.247,0.159,0.457,0.381,0.532l12,4.001c0.052,0.018,0.112,0.028,0.175,0.028,0.309,0,0.561-0.25,0.563-0.559v-23.75c-0.001-0.247-0.161-0.457-0.383-0.532l-8.129-2.689c-0.062-0.026-0.135-0.041-0.211-0.041-0.311,0-0.563,0.252-0.563,0.563,0,0.261,0.177,0.48,0.418,0.544l7.741,2.557v22.56l-10.88-3.625v-24.09h15.5v8.563,0.008c0,0.311,0.252,0.563,0.563,0.563s0.563-0.252,0.563-0.563v-0.009-9.125c0-0.311-0.252-0.562-0.563-0.563h-16.62zm23.05,7.806c-0.024,0-0.047,0.002-0.069,0.005-0.043,0.004-0.094,0.016-0.142,0.035-0.017,0.004-0.072,0.032-0.12,0.068,0.045-0.037-0.012,0-0.061,0.046,0.042-0.042-0.024,0.019-0.074,0.092,0.04-0.06-0.01,0.007-0.044,0.082,0.048-0.099,0.003-0.03-0.025,0.048,0.048-0.103,0.015-0.032-0.003,0.046,0.025-0.103-0.005-0.032-0.02,0.044,0.029-0.103,0.01-0.04,0.003,0.027,0.012-0.085-0.002-0.028-0.006,0.031,0.006-0.067-0.002-0.014-0.002,0.041v0.014c0.002,0.03,0.006,0.059,0.012,0.086-0.001,0.009,0.008,0.047,0.021,0.084-0.003-0.003,0.018,0.046,0.044,0.092-0.026-0.036,0.002,0.018,0.038,0.066-0.031-0.043,0.013,0.015,0.066,0.063-0.056-0.045,0.006,0.019,0.08,0.067-0.066-0.042-0.002,0.006,0.07,0.04l4.441,4.489h-11.08-0.007c-0.037,0-0.073,0.004-0.108,0.01-0.08,0.015-0.154,0.046-0.218,0.091-0.018,0.007-0.084,0.067-0.134,0.139,0.038-0.063-0.014,0.001-0.052,0.074,0.056-0.092,0.013-0.021-0.014,0.057,0.039-0.104,0.002-0.033-0.019,0.046,0.034-0.105,0.004-0.034-0.011,0.042,0.026-0.102,0.005-0.036-0.004,0.034,0.017-0.092,0.003-0.035,0,0.025,0.005-0.066-0.003-0.012-0.003,0.044,0,0.042,0.005,0.084,0.014,0.123,0.013,0.065,0.038,0.126,0.072,0.181-0.009-0.009,0.031,0.049,0.08,0.098-0.053-0.055,0,0.002,0.063,0.047-0.081-0.056-0.023,0,0.044,0.042-0.076-0.052,0.001,0.002,0.088,0.034-0.064-0.017,0.033,0.024,0.139,0.036-0.042-0.004,0.003,0.002,0.049,0.004-0.05-0.003-0.021-0.001,0.008-0.001h0.014,11.07l-4.601,4.601c-0.104,0.102-0.169,0.245-0.169,0.402,0,0.311,0.252,0.564,0.564,0.564,0.157,0,0.3-0.065,0.402-0.169l5.563-5.563c0.026-0.051,0.046-0.111,0.055-0.174,0.005,0.141,0.055,0.105,0.097,0.062-0.097,0.051-0.059-0.014-0.035-0.086-0.047,0.123-0.005,0.057,0.022-0.016-0.06,0.118-0.027,0.053-0.007-0.018-0.011,0.087,0.037-0.037,0.037-0.172,0-0.185-0.09-0.35-0.228-0.453l-5.477-5.501c-0.102-0.105-0.245-0.17-0.403-0.17h-0.002zm-6.37,10.32c-0.307,0.004-0.555,0.255-0.555,0.563v0.008,5h-1.188-0.009c-0.017,0-0.033,0.001-0.05,0.002-0.035,0.003-0.069,0.01-0.101,0.019-0.003-0.001-0.049,0.015-0.092,0.036,0.011-0.013-0.054,0.021-0.11,0.065,0.011-0.014-0.055,0.046-0.104,0.118,0.038-0.063-0.014,0.001-0.052,0.074,0.049-0.086,0.001-0.006-0.025,0.082,0.026-0.084-0.004-0.014-0.018,0.062,0.026-0.102,0.005-0.036-0.004,0.034,0.017-0.092,0.003-0.035,0,0.025,0.005-0.068-0.003-0.016-0.004,0.038,0.001-0.026,0-0.01,0,0.007v0.008c0,0.023,0.002,0.046,0.005,0.069,0.004,0.03,0.013,0.068,0.026,0.105,0,0.023,0.035,0.098,0.084,0.162-0.002,0.002,0.051,0.059,0.114,0.104-0.081-0.056-0.023,0,0.044,0.042-0.083-0.058-0.017-0.008,0.059,0.026-0.098-0.052-0.027-0.01,0.052,0.014-0.105-0.036-0.033,0,0.045,0.019-0.104-0.033-0.035-0.005,0.04,0.007-0.101-0.025-0.038-0.007,0.029,0-0.081-0.009-0.024,0.004,0.035,0.008-0.075-0.009-0.03-0.002,0.016-0.001-0.05-0.003-0.021-0.001,0.008-0.001h0.014,1.749,0.009c0.017,0,0.033-0.001,0.05-0.002,0.035-0.003,0.069-0.01,0.101-0.019,0.018-0.001,0.078-0.024,0.132-0.055,0.007,0.003,0.075-0.045,0.13-0.105-0.025,0.037,0.038-0.03,0.082-0.109-0.042,0.069,0.002-0.002,0.029-0.08-0.034,0.098,0.006,0.018,0.026-0.07-0.022,0.084-0.001,0.018,0.008-0.052-0.014,0.087,0,0.024,0.004-0.042-0.003,0.047,0.001,0.012,0.001-0.023-0.001,0.028,0,0.012,0-0.005v-0.008c0-0.023-0.002-0.046-0.005-0.069-0.005-0.025-0.013-0.057-0.025-0.089l0.022-5.396v-0.008c0-0.311-0.252-0.563-0.563-0.563h-0.008z" fill="#FFF"/>
</svg>
