<?xml version="1.0" encoding="UTF-8" standalone="no"?>
<svg
   xmlns:dc="http://purl.org/dc/elements/1.1/"
   xmlns:cc="http://creativecommons.org/ns#"
   xmlns:rdf="http://www.w3.org/1999/02/22-rdf-syntax-ns#"
   xmlns:svg="http://www.w3.org/2000/svg"
   xmlns="http://www.w3.org/2000/svg"
   xmlns:sodipodi="http://sodipodi.sourceforge.net/DTD/sodipodi-0.dtd"
   xmlns:inkscape="http://www.inkscape.org/namespaces/inkscape"
   width="32"
   height="32"
   viewBox="140 255 32.000001 32"
   id="svg2"
   version="1.1"
   inkscape:version="0.48.5 r10040"
   sodipodi:docname="sign-out-web-4.svg">
  <metadata
     id="metadata12">
    <rdf:RDF>
      <cc:Work
         rdf:about="">
        <dc:format>image/svg+xml</dc:format>
        <dc:type
           rdf:resource="http://purl.org/dc/dcmitype/StillImage" />
      </cc:Work>
    </rdf:RDF>
  </metadata>
  <defs
     id="defs10" />
  <sodipodi:namedview
     pagecolor="#ffffff"
     bordercolor="#666666"
     borderopacity="1"
     objecttolerance="10"
     gridtolerance="10"
     guidetolerance="10"
     inkscape:pageopacity="0"
     inkscape:pageshadow="2"
     inkscape:window-width="1366"
     inkscape:window-height="746"
     id="namedview8"
     showgrid="false"
     fit-margin-top="0"
     fit-margin-left="0"
     fit-margin-right="0"
     fit-margin-bottom="0"
     inkscape:zoom="10.429825"
     inkscape:cx="19.550948"
     inkscape:cy="20.074861"
     inkscape:window-x="-8"
     inkscape:window-y="-8"
     inkscape:window-maximized="1"
     inkscape:current-layer="svg2" />
  <g
     stroke-miterlimit="4"
     id="g4"
     transform="matrix(2.375002,0,0,2.3750001,-254.87533,-1524.5001)"
     style="fill:none;stroke:#000000;stroke-width:0.63157868;stroke-linecap:round;stroke-linejoin:round;stroke-miterlimit:4;stroke-dasharray:none">
    <path
       d="m 168.62445,751.08387 3.40611,1.10968 V 762 L 167,760.34839 V 750 h 6.96943 v 3.76774 m 0.0262,6.01291 -0.73363,0 m 0.73363,0 -0.73363,0 m 0.73363,0 -0.73363,0 m 0.73363,0 -0.73363,0 m 0.73363,-2.29678 0,2.27097 m 5.00436,-4.23226 -2.33187,2.29678 m -2.8821,-2.29678 5.21397,0 -2.33187,-2.29677 m -2.8821,2.29677 5.21397,0 -2.33187,-2.29677 m -2.8821,2.29677 5.21397,0 -2.33187,-2.29677 m -2.8821,2.29677 5.21397,0 -2.33187,-2.29677"
       id="path6"
       inkscape:connector-curvature="0"
       style="stroke-width:0.63157868;stroke-miterlimit:4;stroke-dasharray:none" />
  </g>
</svg>
